<?xml version="1.0" standalone="no"?>
<svg viewBox="0 0 200 200" xmlns="http://www.w3.org/2000/svg">
  <path fill="#B6E4FB" d="M45.7,-63.6C59.2,-53.1,70.1,-39.7,77.9,-23.5C85.6,-7.3,90.2,11.8,84.5,26.9C78.8,42,62.7,53.1,46.9,64C31.1,74.9,15.6,85.6,-1.5,87.6C-18.6,89.7,-37.1,83.2,-50.7,71.5C-64.2,59.9,-72.7,43.1,-78.8,25.4C-84.9,7.6,-88.5,-11.2,-82.8,-26.3C-77,-41.4,-61.8,-52.8,-46.4,-62.6C-31.1,-72.5,-15.5,-80.8,0.3,-81.2C16.1,-81.6,32.2,-74.1,45.7,-63.6Z" transform="translate(100 100)" />
</svg>
